<svg id="Layer_1" data-name="Layer 1" xmlns="http://www.w3.org/2000/svg" viewBox="0 0 488.68 107.65"><defs><style>.cls-1{fill:#301111;}.cls-2{fill:#f89a1c;}.cls-3,.cls-6{fill:#3951a3;}.cls-3{stroke:#243067;stroke-width:4.85px;}.cls-4{fill:#fff;}.cls-5{fill:#242d62;}.cls-7{fill:#f47721;}.cls-8{fill:#231f20;}</style></defs><g id="vlpa"><g id="vlpb"><g id="vlpc"><g id="vlpd"><path class="cls-1" d="M25.37,7.54H89A17.44,17.44,0,0,1,106.47,25V86.17A17.45,17.45,0,0,1,89,103.63H25.37A17.45,17.45,0,0,1,7.91,86.17V25A17.44,17.44,0,0,1,25.37,7.54Z"/></g></g></g><g id="vlpe"><g id="vlpf"><path class="cls-2" d="M55.55,65H40.27l-3.12,9.65a.71.71,0,0,1-.78.57H28.65c-.45,0-.57-.25-.45-.74L41.42,36.45c.13-.41.25-.87.41-1.36a13.81,13.81,0,0,0,.25-2.67.41.41,0,0,1,.33-.45H53c.33,0,.5.12.54.33l15,42.29c.13.46,0,.66-.41.66H59.57a.62.62,0,0,1-.66-.45L55.55,65Zm-12.9-8.34H53.08c-.24-.86-.57-1.89-.94-3S51.4,51.43,51,50.2s-.78-2.5-1.19-3.77-.78-2.47-1.11-3.66-.61-2.22-.9-3.2h-.08a51.66,51.66,0,0,1-1.4,5.29c-.62,2-1.23,4-1.89,6.08S43.27,55,42.65,56.69Z"/><path class="cls-2" d="M77.72,39.16a5.1,5.1,0,0,1-3.65-1.44,5.32,5.32,0,0,1-1.4-3.78,4.81,4.81,0,0,1,1.48-3.65,5.23,5.23,0,0,1,3.65-1.44,4.89,4.89,0,0,1,3.74,1.44,5.63,5.63,0,0,1-.08,7.43,4.83,4.83,0,0,1-3.74,1.44ZM73.12,74.8V43.18c0-.41.17-.57.54-.57h8.13c.37,0,.53.2.53.57V74.8c0,.45-.16.66-.53.66H73.74A.58.58,0,0,1,73.12,74.8Z"/></g></g></g><g id="layer1"><path id="rect3438-4-1-6-9-8-4" class="cls-3" d="M224.67,9.15h87.74a.72.72,0,0,1,.71.74V94.1a.72.72,0,0,1-.71.75H224.67a.73.73,0,0,1-.71-.75V9.89A.73.73,0,0,1,224.67,9.15Z"/><path id="path3008" class="cls-4" d="M246.6,44.65l13-16.42q4-5,4-7.51a3.82,3.82,0,0,0-.23-1.45H286q-2.56,1.44-6.46,6.11-1.05,1.22-3.67,4.47L258.86,51l20.31,28q1.86,2.53,4.71,5.7a18.73,18.73,0,0,0,2.22,1.95H262.84a7.44,7.44,0,0,0,.27-1.85q0-2.49-3.43-7.2L246.6,59.76V77.81c0,4.19.85,7.13,2.53,8.82H227.87a8,8,0,0,0,2.26-4,26.75,26.75,0,0,0,.28-4.75V28.05a27,27,0,0,0-.28-4.76,8,8,0,0,0-2.26-4h21.26c-1.68,1.69-2.53,4.61-2.53,8.78v16.6"/><path id="path3010" class="cls-4" d="M307.36,37.14V78.67a30.55,30.55,0,0,0,.18,4.25,7.27,7.27,0,0,0,1.9,3.71H289.53a7.27,7.27,0,0,0,1.9-3.71,30.55,30.55,0,0,0,.18-4.25V45a29.64,29.64,0,0,0-.18-4.21,7.47,7.47,0,0,0-1.85-3.66h17.78m-7.87-23.66a8.58,8.58,0,0,1,6.37,2.67,8.6,8.6,0,0,1,2.67,6.38,9,9,0,1,1-18.09,0,8.88,8.88,0,0,1,9.05-9"/><path id="path3012" class="cls-5" d="M366.12,83.64A32,32,0,0,1,350,87.72q-14.16,0-22.58-10.5Q319.63,67.5,319.62,53q0-16.29,9.59-25.87a28.66,28.66,0,0,1,21-8.87,33.22,33.22,0,0,1,16.2,4.61,9.6,9.6,0,0,0,3.43,1.31l-8.09,11.77a12.85,12.85,0,0,0-10.64-5.07q-10.39,0-13.57,12.85a38.73,38.73,0,0,0-1,9.27q0,14.39,7.29,19.64A12.2,12.2,0,0,0,351,75.05q6.89,0,12.22-5.88l7.51,12.3c-.36-.09-1.9.64-4.62,2.17"/><path id="path3014" class="cls-5" d="M399,72.74V64.92a19.27,19.27,0,0,0-3.62-.32A14.37,14.37,0,0,0,388.88,66a5.49,5.49,0,0,0-3.43,5.15,5,5,0,0,0,1.94,4.12,6.93,6.93,0,0,0,4.43,1.4,7.71,7.71,0,0,0,7.2-3.89M416.8,86.63H399.92V82.78a16.34,16.34,0,0,1-12,4.85,18.83,18.83,0,0,1-9.45-2.31A14.78,14.78,0,0,1,372,78.26a18,18,0,0,1-1.44-7.37q0-9.42,9.18-13.89,5.3-2.58,14.84-2.58c.9,0,2.47.06,4.7.18q0-7.74-6.74-7.74a26,26,0,0,0-12.08,3.35L376,39.4a29.87,29.87,0,0,0,5.83-1.09l6.15-1.53a33.61,33.61,0,0,1,6.79-.64q14.47,0,18.19,9.23a30.36,30.36,0,0,1,1.81,11.18V78.67a30.55,30.55,0,0,0,.18,4.25,7.27,7.27,0,0,0,1.9,3.71"/><path id="path3016" class="cls-5" d="M451.41,72.74V50.17a10,10,0,0,0-6.65-2.54q-8,0-8,15.48,0,12.48,7.28,12.48a11.55,11.55,0,0,0,7.33-2.85m-2-57.59h17.78V78.67c0,3.77.7,6.42,2.08,8H452.31V82.78a18.42,18.42,0,0,1-23.79,1,21,21,0,0,1-6.56-10,31.58,31.58,0,0,1-1.45-9.87q0-18,9.18-24.61a16.71,16.71,0,0,1,10-3.12q7.47,0,11.72,4V23a29.37,29.37,0,0,0-.18-4.2,7.44,7.44,0,0,0-1.86-3.67"/><path id="rect4352-5-1" class="cls-6" d="M288.8,12.73h21.72V33.47H288.8Z"/><path id="path3552-6-3-7" class="cls-7" d="M308.65,9.17A9.2,9.2,0,1,1,299.46,0,9.19,9.19,0,0,1,308.65,9.17Z"/></g><path class="cls-8" d="M165.17,57.94,127.49,81.55V68.41l27-14.8v-.22L127.49,37.54V24.35L165.17,49Z"/><path class="cls-8" d="M202.94,57.94,165.25,81.55V68.41l27-14.8v-.22l-27-15.85V24.35L202.94,49Z"/></svg>