<svg id="Layer_1" data-name="Layer 1" xmlns="http://www.w3.org/2000/svg" viewBox="0 0 488.68 107.65"><defs><style>.cls-1,.cls-4{fill:#3951a3;}.cls-1{stroke:#243067;stroke-width:4.85px;}.cls-2{fill:#fff;}.cls-3{fill:#242d62;}.cls-5{fill:#f47721;}.cls-6{fill:#231f20;}.cls-7{fill:#f9f9f9;}.cls-8{fill:#080808;}.cls-9{fill:#e9e8e7;}.cls-10{fill:#b32639;}</style></defs><g id="layer1"><path id="rect3438-4-1-6-9-8-4" class="cls-1" d="M224.67,9.15h87.74a.72.72,0,0,1,.71.74V94.1a.72.72,0,0,1-.71.75H224.67a.73.73,0,0,1-.71-.75V9.89A.73.73,0,0,1,224.67,9.15Z"/><path id="path3008" class="cls-2" d="M246.6,44.65l13-16.42q4-5,4-7.51a3.82,3.82,0,0,0-.23-1.45H286q-2.56,1.44-6.46,6.11-1.05,1.22-3.67,4.47L258.86,51l20.31,28q1.86,2.53,4.71,5.7a18.73,18.73,0,0,0,2.22,1.95H262.84a7.44,7.44,0,0,0,.27-1.85q0-2.49-3.43-7.2L246.6,59.76V77.81c0,4.19.85,7.13,2.53,8.82H227.87a8,8,0,0,0,2.26-4,26.75,26.75,0,0,0,.28-4.75V28.05a27,27,0,0,0-.28-4.76,8,8,0,0,0-2.26-4h21.26c-1.68,1.69-2.53,4.61-2.53,8.78v16.6"/><path id="path3010" class="cls-2" d="M307.36,37.14V78.67a30.55,30.55,0,0,0,.18,4.25,7.27,7.27,0,0,0,1.9,3.71H289.53a7.27,7.27,0,0,0,1.9-3.71,30.55,30.55,0,0,0,.18-4.25V45a29.64,29.64,0,0,0-.18-4.21,7.47,7.47,0,0,0-1.85-3.66h17.78m-7.87-23.66a8.58,8.58,0,0,1,6.37,2.67,8.6,8.6,0,0,1,2.67,6.38,9,9,0,1,1-18.09,0,8.88,8.88,0,0,1,9.05-9"/><path id="path3012" class="cls-3" d="M366.12,83.64A32,32,0,0,1,350,87.72q-14.16,0-22.58-10.5Q319.63,67.5,319.62,53q0-16.29,9.59-25.87a28.66,28.66,0,0,1,21-8.87,33.22,33.22,0,0,1,16.2,4.61,9.6,9.6,0,0,0,3.43,1.31l-8.09,11.77a12.85,12.85,0,0,0-10.64-5.07q-10.39,0-13.57,12.85a38.73,38.73,0,0,0-1,9.27q0,14.39,7.29,19.64A12.2,12.2,0,0,0,351,75.05q6.89,0,12.22-5.88l7.51,12.3c-.36-.09-1.9.64-4.62,2.17"/><path id="path3014" class="cls-3" d="M399,72.74V64.92a19.27,19.27,0,0,0-3.62-.32A14.37,14.37,0,0,0,388.88,66a5.49,5.49,0,0,0-3.43,5.15,5,5,0,0,0,1.94,4.12,6.93,6.93,0,0,0,4.43,1.4,7.71,7.71,0,0,0,7.2-3.89M416.8,86.63H399.92V82.78a16.34,16.34,0,0,1-12,4.85,18.83,18.83,0,0,1-9.45-2.31A14.78,14.78,0,0,1,372,78.26a18,18,0,0,1-1.44-7.37q0-9.42,9.18-13.89,5.3-2.58,14.84-2.58c.9,0,2.47.06,4.7.18q0-7.74-6.74-7.74a26,26,0,0,0-12.08,3.35L376,39.4a29.87,29.87,0,0,0,5.83-1.09l6.15-1.53a33.61,33.61,0,0,1,6.79-.64q14.47,0,18.19,9.23a30.36,30.36,0,0,1,1.81,11.18V78.67a30.55,30.55,0,0,0,.18,4.25,7.27,7.27,0,0,0,1.9,3.71"/><path id="path3016" class="cls-3" d="M451.41,72.74V50.17a10,10,0,0,0-6.65-2.54q-8,0-8,15.48,0,12.48,7.28,12.48a11.55,11.55,0,0,0,7.33-2.85m-2-57.59h17.78V78.67c0,3.77.7,6.42,2.08,8H452.31V82.78a18.42,18.42,0,0,1-23.79,1,21,21,0,0,1-6.56-10,31.58,31.58,0,0,1-1.45-9.87q0-18,9.18-24.61a16.71,16.71,0,0,1,10-3.12q7.47,0,11.72,4V23a29.37,29.37,0,0,0-.18-4.2,7.44,7.44,0,0,0-1.86-3.67"/><path id="rect4352-5-1" class="cls-4" d="M288.8,12.73h21.72V33.47H288.8Z"/><path id="path3552-6-3-7" class="cls-5" d="M308.65,9.17A9.2,9.2,0,1,1,299.46,0,9.19,9.19,0,0,1,308.65,9.17Z"/></g><path class="cls-6" d="M165.17,57.94,127.49,81.55V68.41l27-14.8v-.22L127.49,37.54V24.35L165.17,49Z"/><path class="cls-6" d="M202.94,57.94,165.25,81.55V68.41l27-14.8v-.22l-27-15.85V24.35L202.94,49Z"/><path class="cls-7" d="M106.47,102.48H10.76V6.78h95.71Zm-2-92.9c-.42,0-.77-.05-1.12-.05h-90c-.45,0-.66.18-.65.64,0,.23,0,.47,0,.71V101h91.74Z"/><path class="cls-8" d="M104.48,9.58V101H12.74V10.88c0-.24,0-.48,0-.71,0-.46.2-.66.65-.64h90C103.71,9.53,104.06,9.56,104.48,9.58Zm-75.43,27a29.87,29.87,0,0,0-9.13-1.49c-2.3,0-3.21.65-3.87,2.88-.08.27-.16.54-.23.81a16,16,0,0,0-.28,5.68c.15,1.21.61,1.49,1.79,1.23l1.5-.35A19.3,19.3,0,0,1,35.1,48.53,30.88,30.88,0,0,1,45.78,61.36c.11.28.44.48.67.71.19-.27.49-.53.55-.83A12.92,12.92,0,0,0,47.26,59a20.3,20.3,0,0,0-2.7-10.32c-.83-1.57-.41-2.91,1.24-3.49a59.67,59.67,0,0,0,14.3-7.38,3.82,3.82,0,0,0,1.72-4.29c0-.23-.14-.45-.2-.68a29.77,29.77,0,0,0-4.93-10.46,26.39,26.39,0,0,0-6-6.24c-.26-.18-.72-.36-.94-.25s-.29.58-.32.91c-.17,1.81-.22,3.64-.48,5.44a36.1,36.1,0,0,1-8.28,18.63,2,2,0,0,1-3,.35c-1.42-1-1.71-2-1-3.19.49-.77,1-1.51,1.52-2.28a30.27,30.27,0,0,0,5-19.76c-.33-3.25-1.64-4.27-4.85-3.65-2.22.44-4.43,1-6.61,1.57-1.6.45-3.14,1.1-4.7,1.7-.78.3-.84.57-.41,1.25.23.37.5.71.76,1.07a14.23,14.23,0,0,1,2.48,5.35C30.85,27.75,30.24,32.11,29.05,36.56Zm71.76,4.72c-.21-.07-.25-.11-.28-.1a6.6,6.6,0,0,0-3.79,2.55.89.89,0,0,1-.31.27,15.71,15.71,0,0,0-1.71,1A69,69,0,0,1,83.89,52.5a37.91,37.91,0,0,1-5.38,2.14A3.22,3.22,0,0,1,75.37,54a.78.78,0,0,1-.09-1.31A8.42,8.42,0,0,1,76,52.1a10,10,0,0,0,3.35-4.67,10.93,10.93,0,0,0,.25-1.66,18.19,18.19,0,0,0-1.83.43c-1,.35-2,.89-3,1.14-3.88.94-6.48.06-8.23-3-1.08-1.84-2-3.76-3-5.66-.63-1.22-.69-1.24-1.81-.39a39.72,39.72,0,0,1-8.28,5.07c-1.09.48-2.18,1-3.22,1.52a3.29,3.29,0,0,0-1.8,3.46A1.6,1.6,0,0,0,50,50.08c.5.1,1,.09,1.53.14l4.09.44c-.32.2-.38.27-.45.27a1.69,1.69,0,0,0-1.65,1.46c-.18.83.57,1.12,1.12,1.49l3,2a9.32,9.32,0,0,0,1.43.83,1.33,1.33,0,0,0,1.84-1.51c0-.28-.16-.55-.19-.69,1-.27,1.84-.47,2.67-.77a5.84,5.84,0,0,1,3.56-.27c-.4.29-.57.51-.79.57a6.47,6.47,0,0,0-4.25,4c-.38.9-.62,1.87-1,2.78a2.5,2.5,0,0,1-3.19,1.55c-1.86-.76-3.67-1.66-5.48-2.54A2.39,2.39,0,0,1,50.94,57a46.62,46.62,0,0,0,.15-4.88c0-.65-.22-1.19-1.08-1a1.46,1.46,0,0,0-.12.35c-.31,2.51-.63,5-.91,7.55a2.37,2.37,0,0,0,.94,2.31A28.61,28.61,0,0,0,52.4,63c2.18,1.29,4.41,2.49,6.58,3.8a58.47,58.47,0,0,1,9.85,7.68A9.4,9.4,0,0,0,70.72,76a.92.92,0,0,0,1.42-.85,2.24,2.24,0,0,0-.26-1.25,10.76,10.76,0,0,0-1.46-2c-1-1-2.13-2-3.2-3a3.46,3.46,0,0,1-.39-.58l.23-.22c1.28,1,2.6,2,3.82,3.16a33.93,33.93,0,0,1,2.47,2.74c.42.49.85.84,1.53.47,2.34-1.3,5.19-3.73,4.85-7.68a3.18,3.18,0,0,1,.83-2.38,34.57,34.57,0,0,1,6.07-5.71A48.7,48.7,0,0,0,97.09,48.25c1.27-1.81,2.33-3.77,3.44-5.69A4.57,4.57,0,0,0,100.81,41.28Zm-12.75.31c.11-.27.23-.53.33-.78,2.77-6.71,5.49-13.44,8.33-20.12.73-1.71.48-3.39.55-5.13H79.58v4.88h11.3l-8.7,21.15ZM21.55,92.7c.32-.21.56-.33.77-.5a2.89,2.89,0,0,0,1.14-3.15,2.48,2.48,0,0,0-2.4-2c-1.32-.11-2.66,0-4,0V97L18.36,97V93.13A2.14,2.14,0,0,1,21,94c.51.75,1.21,1.37,1.74,2.11a1.82,1.82,0,0,0,2.33.73Zm39.61,4.8c.43,0,.78.07,1.12.06,1.42,0,1.12.25,1.69-1.12,1-2.34,1.9-4.69,2.87-7a3.68,3.68,0,0,0,.2-2.26h-7v2h4.46ZM27.89,97V92.58c0-1.29.5-1.86,1.76-2s1.84.3,1.9,1.62c0,.79,0,1.58,0,2.38V97h1.21c0-.28.09-.51.09-.73,0-1.51,0-3-.08-4.52-.18-2.07-1.89-3-3.8-2.08-.34.16-.67.33-1.16.58V86.53l-1.21.07V97Zm21.72-7.59a2.89,2.89,0,0,0-2.46,1.05A4.86,4.86,0,0,0,47,95.88,3.62,3.62,0,0,0,48.6,97c2.29.7,4.65-.48,4.56-3.94C53.1,90.69,51.76,89.38,49.61,89.38Zm-11,.17V97l1.06,0c.07-.12.11-.15.11-.19,0-1.54,0-3.09,0-4.64a1.07,1.07,0,0,1,.51-1.08c1.9-1.16,3.14-.56,3.22,1.67,0,1.31,0,2.62,0,3.93,0,.1.08.2.15.37l1.08-.09c0-1.07,0-2.06,0-3a18.86,18.86,0,0,0-.13-2.61,2,2,0,0,0-2.32-1.88,14.33,14.33,0,0,0-2.48.63C39.94,89.42,39.43,89.39,38.66,89.55ZM36,97V89.49l-1,.07V97ZM34.7,87.05l.06,1.23h1.33V87.05Z"/><path class="cls-7" d="M29.05,36.56c1.19-4.45,1.8-8.81.84-13.28a14.23,14.23,0,0,0-2.48-5.35c-.26-.36-.53-.7-.76-1.07-.43-.68-.37-.95.41-1.25,1.56-.6,3.1-1.25,4.7-1.7,2.18-.61,4.39-1.13,6.61-1.57,3.21-.62,4.52.4,4.85,3.65a30.27,30.27,0,0,1-5,19.76c-.49.77-1,1.51-1.52,2.28-.76,1.22-.47,2.18,1,3.19a2,2,0,0,0,3-.35,36.1,36.1,0,0,0,8.28-18.63c.26-1.8.31-3.63.48-5.44,0-.33.11-.81.32-.91s.68.07.94.25a26.39,26.39,0,0,1,6,6.24,29.77,29.77,0,0,1,4.93,10.46c.06.23.16.45.2.68a3.82,3.82,0,0,1-1.72,4.29,59.67,59.67,0,0,1-14.3,7.38c-1.65.58-2.07,1.92-1.24,3.49A20.3,20.3,0,0,1,47.26,59,12.92,12.92,0,0,1,47,61.24c-.06.3-.36.56-.55.83-.23-.23-.56-.43-.67-.71A30.88,30.88,0,0,0,35.1,48.53a19.3,19.3,0,0,0-16.27-3.21l-1.5.35c-1.18.26-1.64,0-1.79-1.23a16,16,0,0,1,.28-5.68c.07-.27.15-.54.23-.81.66-2.23,1.57-2.88,3.87-2.88A29.87,29.87,0,0,1,29.05,36.56Z"/><path class="cls-7" d="M100.81,41.28a4.57,4.57,0,0,1-.28,1.28c-1.11,1.92-2.17,3.88-3.44,5.69A48.7,48.7,0,0,1,86.63,58.61a34.57,34.57,0,0,0-6.07,5.71,3.18,3.18,0,0,0-.83,2.38c.34,4-2.51,6.38-4.85,7.68-.68.37-1.11,0-1.53-.47a33.93,33.93,0,0,0-2.47-2.74c-1.22-1.11-2.54-2.11-3.82-3.16l-.23.22a3.46,3.46,0,0,0,.39.58c1.07,1,2.18,2,3.2,3a10.76,10.76,0,0,1,1.46,2,2.24,2.24,0,0,1,.26,1.25.92.92,0,0,1-1.42.85,9.4,9.4,0,0,1-1.89-1.43A58.47,58.47,0,0,0,59,66.84c-2.17-1.31-4.4-2.51-6.58-3.8a28.61,28.61,0,0,1-2.48-1.63A2.37,2.37,0,0,1,49,59.1c.28-2.52.6-5,.91-7.55A1.46,1.46,0,0,1,50,51.2c.86-.23,1.08.31,1.08,1A46.62,46.62,0,0,1,50.94,57a2.39,2.39,0,0,0,1.27,2.78c1.81.88,3.62,1.78,5.48,2.54a2.5,2.5,0,0,0,3.19-1.55c.36-.91.6-1.88,1-2.78a6.47,6.47,0,0,1,4.25-4c.22-.06.39-.28.79-.57a5.84,5.84,0,0,0-3.56.27c-.83.3-1.71.5-2.67.77,0,.14.14.41.19.69A1.33,1.33,0,0,1,59,56.69a9.32,9.32,0,0,1-1.43-.83l-3-2c-.55-.37-1.3-.66-1.12-1.49a1.69,1.69,0,0,1,1.65-1.46c.07,0,.13-.07.45-.27l-4.09-.44c-.51,0-1,0-1.53-.14a1.6,1.6,0,0,1-1.51-1.69,3.29,3.29,0,0,1,1.8-3.46c1-.57,2.13-1,3.22-1.52a39.72,39.72,0,0,0,8.28-5.07c1.12-.85,1.18-.83,1.81.39,1,1.9,1.91,3.82,3,5.66,1.75,3,4.35,3.89,8.23,3,1-.25,2-.79,3-1.14a18.19,18.19,0,0,1,1.83-.43,10.93,10.93,0,0,1-.25,1.66A10,10,0,0,1,76,52.1a8.42,8.42,0,0,0-.73.61A.78.78,0,0,0,75.37,54a3.22,3.22,0,0,0,3.14.62,37.91,37.91,0,0,0,5.38-2.14A69,69,0,0,0,94.72,45a15.71,15.71,0,0,1,1.71-1,.89.89,0,0,0,.31-.27,6.6,6.6,0,0,1,3.79-2.55S100.6,41.21,100.81,41.28ZM71.72,69.62a2.73,2.73,0,0,0,.06.31,6.88,6.88,0,0,0,2.21,3c.1.1.56,0,.71-.11a2.74,2.74,0,0,0,.91-2.68,2.53,2.53,0,0,0-2-2.08A1.46,1.46,0,0,0,71.72,69.62Zm-13-15.18a6.34,6.34,0,0,0-2.43-1.85c-.46-.23-.79-.4-1.09.1s-.08.83.33,1.11c.59.4,1.18.81,1.78,1.18C58.1,55.47,58.28,55.39,58.73,54.44Z"/><path class="cls-7" d="M88.06,41.59H82.18l8.7-21.15H79.58V15.56H97.27c-.07,1.74.18,3.42-.55,5.13-2.84,6.68-5.56,13.41-8.33,20.12C88.29,41.06,88.17,41.32,88.06,41.59Z"/><path class="cls-9" d="M21.55,92.7l3.54,4.18a1.82,1.82,0,0,1-2.33-.73c-.53-.74-1.23-1.36-1.74-2.11a2.14,2.14,0,0,0-2.66-.91V97L17,97v-10c1.36,0,2.7-.08,4,0a2.48,2.48,0,0,1,2.4,2,2.89,2.89,0,0,1-1.14,3.15C22.11,92.37,21.87,92.49,21.55,92.7Zm-3.17-.94a22.32,22.32,0,0,0,2.32,0,1.76,1.76,0,0,0,1.47-1.88,1.56,1.56,0,0,0-1.54-1.64c-.73-.07-1.47,0-2.25,0Z"/><path class="cls-9" d="M61.16,97.5l3.39-8.37H60.09v-2h7a3.68,3.68,0,0,1-.2,2.26c-1,2.33-1.9,4.68-2.87,7-.57,1.37-.27,1.1-1.69,1.12C61.94,97.57,61.59,97.53,61.16,97.5Z"/><path class="cls-9" d="M27.89,97H26.63V86.6l1.21-.07v3.69c.49-.25.82-.42,1.16-.58,1.91-.88,3.62,0,3.8,2.08.13,1.49.06,3,.08,4.52,0,.22-.06.45-.09.73H31.58v-2.4c0-.8,0-1.59,0-2.38-.06-1.32-.61-1.78-1.9-1.62s-1.75.72-1.76,2Z"/><path class="cls-9" d="M49.61,89.38c2.15,0,3.49,1.31,3.55,3.69.09,3.46-2.27,4.64-4.56,3.94A3.62,3.62,0,0,1,47,95.88a4.86,4.86,0,0,1,.15-5.45A2.89,2.89,0,0,1,49.61,89.38Zm2.27,3.94H51.8c0-.23,0-.47,0-.71a2,2,0,0,0-2-2.12,2,2,0,0,0-2.23,1.94,6.66,6.66,0,0,0,.14,2.22,2,2,0,0,0,3.86.06A12,12,0,0,0,51.88,93.32Z"/><path class="cls-9" d="M38.66,89.55c.77-.16,1.28-.13,1.27.49a14.33,14.33,0,0,1,2.48-.63,2,2,0,0,1,2.32,1.88,18.86,18.86,0,0,1,.13,2.61c0,1,0,2,0,3L43.78,97c-.07-.17-.15-.27-.15-.37,0-1.31,0-2.62,0-3.93-.08-2.23-1.32-2.83-3.22-1.67a1.07,1.07,0,0,0-.51,1.08c0,1.55,0,3.1,0,4.64,0,0,0,.07-.11.19l-1.06,0Z"/><path class="cls-7" d="M36,97h-1V89.56l1-.07Z"/><path class="cls-9" d="M34.7,87.05h1.39v1.23H34.76Z"/><path class="cls-8" d="M71.72,69.62a1.46,1.46,0,0,1,1.87-1.56,2.53,2.53,0,0,1,2,2.08,2.74,2.74,0,0,1-.91,2.68c-.15.14-.61.21-.71.11a6.88,6.88,0,0,1-2.21-3A2.73,2.73,0,0,1,71.72,69.62Z"/><path class="cls-10" d="M58.73,54.44c-.45,1-.63,1-1.41.54-.6-.37-1.19-.78-1.78-1.18-.41-.28-.61-.66-.33-1.11s.63-.33,1.09-.1A6.34,6.34,0,0,1,58.73,54.44Z"/><path class="cls-8" d="M18.38,91.76V88.21c.78,0,1.52,0,2.25,0a1.56,1.56,0,0,1,1.54,1.64,1.76,1.76,0,0,1-1.47,1.88A22.32,22.32,0,0,1,18.38,91.76Z"/><path class="cls-8" d="M51.88,93.32a12,12,0,0,1-.27,1.38,2,2,0,0,1-3.86-.06,6.66,6.66,0,0,1-.14-2.22,2,2,0,0,1,2.23-1.94,2,2,0,0,1,2,2.12c0,.24,0,.48,0,.71Z"/></svg>